<?xml version="1.0" encoding="UTF-8" standalone="no"?>
<!-- Created with Inkscape (http://www.inkscape.org/) -->

<svg
   width="30.742813mm"
   height="11.682962mm"
   viewBox="0 0 30.742813 11.682962"
   version="1.1"
   id="svg5"
   inkscape:version="1.1.1 (3bf5ae0d25, 2021-09-20)"
   sodipodi:docname="vpforcelogo.svg"
   xmlns:inkscape="http://www.inkscape.org/namespaces/inkscape"
   xmlns:sodipodi="http://sodipodi.sourceforge.net/DTD/sodipodi-0.dtd"
   xmlns="http://www.w3.org/2000/svg"
   xmlns:svg="http://www.w3.org/2000/svg">
  <sodipodi:namedview
     id="namedview7"
     pagecolor="#ffffff"
     bordercolor="#666666"
     borderopacity="1.0"
     inkscape:pageshadow="2"
     inkscape:pageopacity="0.0"
     inkscape:pagecheckerboard="0"
     inkscape:document-units="mm"
     showgrid="false"
     fit-margin-top="0"
     fit-margin-left="0"
     fit-margin-right="0"
     fit-margin-bottom="0"
     inkscape:zoom="2.5620932"
     inkscape:cx="92.697644"
     inkscape:cy="-12.294635"
     inkscape:window-width="1920"
     inkscape:window-height="1020"
     inkscape:window-x="0"
     inkscape:window-y="32"
     inkscape:window-maximized="1"
     inkscape:current-layer="layer1" />
  <defs
     id="defs2" />
  <g
     inkscape:label="Layer 1"
     inkscape:groupmode="layer"
     id="layer1"
     transform="translate(-142.42241,-79.251704)">
    <path
       style="fill:#170b28;stroke-width:0.411594"
       d="m 170.29141,87.435384 -1.93322,0.007 v 1.03766 h 0.88057 c 0.57991,0 1.05265,-0.46498 1.05265,-1.0449 z"
       id="path864" />
    <path
       style="fill:#170b28;stroke-width:0.411594"
       d="m 164.97183,87.428384 v 1.05213 h 1.21698 v -1.05213 z"
       id="path862" />
    <path
       style="fill:#170b28;stroke-width:0.411594"
       d="m 164.97183,84.564474 v 1.05265 h 1.23145 v -1.05265 z"
       id="path860" />
    <path
       style="fill:#170b28;stroke-width:0.411594"
       d="m 164.40649,84.564474 c -0.57991,0 -1.04541,0.47266 -1.04541,1.04541 l 0.007,1.88981 c 0,0.54412 0.43662,0.98082 0.97358,0.98082 h 0.10026 v -3.91604 z"
       id="path858" />
    <path
       style="fill:#170b28;stroke-width:0.411594"
       d="m 157.86271,84.564474 v 1.05265 h 0.8878 v 1.81126 h -0.8878 v 1.05213 h 0.89503 c 0.57992,0 1.0449,-0.47215 1.0449,-1.0449 v -1.82573 c 0,-0.57992 -0.46498,-1.04541 -1.0449,-1.04541 z"
       id="path856" />
    <path
       style="fill:#170b28;stroke-width:0.411594"
       d="m 157.33303,84.564474 c -0.57992,0 -1.04542,0.46549 -1.04542,1.04541 v 1.82573 c 0,0.57275 0.4655,1.0449 1.04542,1.0449 z"
       id="path854" />
    <path
       style="fill:#170b28;stroke-width:0.411594"
       d="m 155.0634,84.564474 v 1.05265 h 0.73742 v -1.05265 z"
       id="path852" />
    <path
       style="fill:#170b28;stroke-width:0.411594"
       d="m 168.35819,84.549974 v 1.05265 h 0.88057 v 0.40101 h -0.88057 v 1.05213 h 0.88057 c 0.57991,0 1.05265,-0.465 1.05265,-1.0449 v -0.41548 c 0,-0.57275 -0.47274,-1.04541 -1.05265,-1.04541 z"
       id="path850" />
    <path
       style="fill:#170b28;stroke-width:0.411594"
       d="m 167.81404,84.549974 c -0.57992,0 -1.03818,0.47266 -1.03818,1.04541 v 1.8402 c 0,0.57992 0.45826,1.0449 1.03818,1.0449 z"
       id="path848" />
    <path
       style="fill:#170b28;stroke-width:0.411594"
       d="m 160.31837,84.542974 v 3.94498 h 1.04542 v -3.94498 z"
       id="path846" />
    <path
       style="fill:#170b28;stroke-width:0.411594"
       d="m 162.92441,84.457174 c -0.32217,0 -0.68729,0.0859 -1.03094,0.25063 v 1.25315 c 0.35797,-0.32934 0.80184,-0.45113 1.03094,-0.45113 z"
       id="path844" />
    <path
       style="fill:#170b28;stroke-width:0.411594"
       d="m 154.52648,82.681574 c -0.57276,0 -1.04542,0.47263 -1.04542,1.04541 v 0.83768 h -0.28628 v 1.05265 h 0.28628 v 2.87062 h 1.05265 v -4.75371 h 1.27434 v -1.05265 z"
       id="path842" />
    <path
       style="fill:#ab37c8;stroke-width:0.411594"
       d="m 149.28442,82.681574 v 5.8074 h 2.71818 c 0.22675,0 0.40928,-0.15936 0.40928,-0.35709 v -5.09323 c 0,-0.19777 -0.18254,-0.35708 -0.40928,-0.35708 h -0.9617 c 0.46446,0.10945 0.8077,0.53117 0.8077,1.02164 v 1.4211 c 0,0.49264 -0.35808,0.89257 -0.82372,0.96377 h -1.21026 v -1.03508 h 0.98134 v -1.34255 h -0.98134 v -1.02888 z"
       id="path840" />
    <path
       style="fill:#ab37c8;stroke-width:0.411594"
       d="m 144.23408,82.681574 v 1.60042 l 1.32499,4.0411 -0.0558,0.16588 h 2.728 v -4.77852 h -0.60203 v -1.02888 h -0.73743 v 1.77147 l -1.02474,3.03444 -0.55139,-1.65623 0.52297,-1.54978 v -1.5999 z"
       id="path838" />
    <path
       style="fill:#ab37c8;stroke-width:0.411594"
       d="m 142.94889,82.681574 c -0.22675,0 -0.40928,0.15956 -0.40928,0.35708 v 5.09323 c 0,0.19777 0.18254,0.35709 0.40928,0.35709 h 1.5844 l -1.35237,-4.03593 v -1.77147 z"
       id="path836" />
    <path
       style="fill:#170b28;stroke-width:0.411594"
       d="m 171.6443,80.640874 v 5.1e-4 c -7.2e-4,7.5e-4 -0.002,0.002 -0.003,0.002 l 0.004,-0.002 c -8e-5,1e-5 -0.001,-4.9e-4 -0.002,-5.1e-4 z"
       id="path834" />
    <path
       style="fill:#170b28;stroke-width:0.411594"
       d="m 168.26776,79.251804 c -0.001,-8e-5 -0.002,2e-5 -0.003,5.2e-4 -0.0117,0.0117 0.14865,0.25667 0.25838,0.39429 0.12215,0.15328 0.32327,0.37993 0.43976,0.4961 l 0.0388,0.0393 -0.0501,0.0501 c -0.0275,0.0277 -0.0502,0.0517 -0.0501,0.0537 4e-5,0.002 0.0386,0.0365 0.0858,0.077 0.047,0.0404 0.17806,0.15271 0.29146,0.25011 0.11617,0.0998 0.20628,0.18204 0.20619,0.18604 0,0.005 -0.007,0.0734 -0.016,0.15193 -0.009,0.0785 -0.0382,0.32238 -0.0641,0.54208 -0.0261,0.21971 -0.0481,0.40014 -0.0491,0.40101 -8.9e-4,8.1e-4 -0.0979,-0.0475 -0.21601,-0.108 -0.11798,-0.0603 -0.2194,-0.1127 -0.22531,-0.11369 -0.006,-0.002 0.18862,0.18557 0.43254,0.41651 0.244,0.23103 0.445,0.42017 0.447,0.42013 0.002,0 -0.005,-0.0288 -0.015,-0.0636 -0.0109,-0.0346 -0.0194,-0.0652 -0.0196,-0.0693 -1.5e-4,-0.004 0.0897,-0.12983 0.19895,-0.2806 0.10941,-0.1508 0.24388,-0.33639 0.29921,-0.4129 0.0553,-0.0765 0.10083,-0.14007 0.1018,-0.14107 9.9e-4,-0.001 0.0209,0.0139 0.0444,0.0341 0.0236,0.02 0.0528,0.0452 0.0651,0.0553 l 0.0222,0.0181 0.0475,0.33022 c 0.0438,0.29781 0.0483,0.33093 0.0584,0.33693 0.0174,0.0108 0.11954,0.0433 0.12144,0.0393 0.001,-0.002 0.0336,-0.10592 0.0718,-0.23099 0.005,-0.0176 0.009,-0.029 0.0139,-0.0455 1.66914,1.58983 2.17138,3.62743 1.69292,5.2834 -0.50225,1.73834 -2.06215,3.07912 -4.63279,3.07423 l -25.43979,-0.045 -0.002,0.4961 25.43979,0.047 c 2.74801,0.005 4.5504,-1.49204 5.11131,-3.43338 0.53819,-1.86268 -0.0484,-4.11208 -1.86551,-5.8198 0.0412,-0.0135 0.0995,-0.0325 0.17776,-0.0584 0.12457,-0.0397 0.23113,-0.076 0.23513,-0.078 0.007,-0.004 0.005,-0.0134 -0.0155,-0.0656 -0.0183,-0.0443 -0.0263,-0.0605 -0.0346,-0.0625 -0.006,-10e-4 -0.15435,-0.0175 -0.3297,-0.0357 -0.17531,-0.0176 -0.32541,-0.035 -0.33331,-0.0357 -0.009,-0.002 -0.0343,-0.0233 -0.0724,-0.0636 -0.0316,-0.0336 -0.057,-0.0618 -0.0558,-0.0625 0.0104,-0.007 0.19811,-0.1442 0.48576,-0.35502 0.19053,-0.13953 0.3494,-0.25369 0.3514,-0.25373 0.003,0 0.0324,0.008 0.0651,0.016 0.0314,0.008 0.0581,0.0135 0.062,0.0139 5.2e-4,-6.9e-4 10e-4,-0.001 10e-4,-0.002 -3e-5,-0.002 -0.20112,-0.1938 -0.447,-0.42581 -0.2458,-0.23213 -0.44193,-0.41518 -0.43563,-0.40308 0.036,0.0585 0.24593,0.4233 0.24443,0.4253 -0.002,0.002 -1.10618,0.15816 -1.12035,0.15864 -0.005,8e-5 -0.10503,-0.0996 -0.22221,-0.22169 -0.26982,-0.28127 -0.28642,-0.29754 -0.30747,-0.31574 l -0.0165,-0.0139 -0.0496,0.0496 -0.0501,0.0496 -0.0693,-0.0599 c -0.20946,-0.18242 -0.4681,-0.37787 -0.66198,-0.49971 -0.10259,-0.0645 -0.22096,-0.12904 -0.24184,-0.13023 z"
       id="rect40335-1" />
  </g>
</svg>
